HIERARCHY
ROOT Hips
{
    OFFSET 0.000000 0.000000 0.000000
    CHANNELS 6 Xposition Yposition Zposition Zrotation Xrotation Yrotation
    JOINT Spine
    {
        OFFSET -0.000000 7.595339 0.000000
        CHANNELS 3 Zrotation Xrotation Yrotation
        JOINT Spine1
        {
            OFFSET -0.000000 23.501528 0.000000
            CHANNELS 3 Zrotation Xrotation Yrotation
            JOINT Neck
            {
                OFFSET -0.000000 23.405012 2.127728
                CHANNELS 3 Zrotation Xrotation Yrotation
                JOINT Head
                {
                    OFFSET -0.000000 12.967652 -1.852522
                    CHANNELS 3 Zrotation Xrotation Yrotation
                    End Site
                    {
                        OFFSET -0.000000 23.156521 0.000000
                    }
                }
            }
            JOINT LeftShoulder
            {
                OFFSET 3.622064 22.473162 -0.132728
                CHANNELS 3 Zrotation Xrotation Yrotation
                JOINT LeftArm
                {
                    OFFSET 8.177839 0.000000 0.000000
                    CHANNELS 3 Zrotation Xrotation Yrotation
                    JOINT LeftForeArm
                    {
                        OFFSET 30.104038 0.000000 0.000000
                        CHANNELS 3 Zrotation Xrotation Yrotation
                        JOINT LeftHand
                        {
                            OFFSET 24.466351 0.000000 0.000000
                            CHANNELS 3 Zrotation Xrotation Yrotation
                            End Site
                            {
                                OFFSET 13.893912 0.000000 0.000000
                            }
                        }
                    }
                }
            }
            JOINT RightShoulder
            {
                OFFSET -3.633604 22.473162 -0.132728
                CHANNELS 3 Zrotation Xrotation Yrotation
                JOINT RightArm
                {
                    OFFSET -8.177839 0.000000 0.000000
                    CHANNELS 3 Zrotation Xrotation Yrotation
                    JOINT RightForeArm
                    {
                        OFFSET -30.104038 0.000000 0.000000
                        CHANNELS 3 Zrotation Xrotation Yrotation
                        JOINT RightHand
                        {
                            OFFSET -24.466351 0.000000 0.000000
                            CHANNELS 3 Zrotation Xrotation Yrotation
                            End Site
                            {
                                OFFSET -13.893912 0.000000 0.000000
                            }
                        }
                    }
                }
            }
        }
    }
    JOINT LeftUpLeg
    {
        OFFSET 9.262609 0.000000 0.000000
        CHANNELS 3 Zrotation Xrotation Yrotation
        JOINT LeftLeg
        {
            OFFSET -0.000000 -35.489674 0.000000
            CHANNELS 3 Zrotation Xrotation Yrotation
            JOINT LeftFoot
            {
                OFFSET -0.000000 -38.202274 0.000000
                CHANNELS 3 Zrotation Xrotation Yrotation
                JOINT LeftToeBase
                {
                    OFFSET -0.000000 -6.020695 13.893912
                    CHANNELS 3 Zrotation Xrotation Yrotation
                    End Site
                    {
                        OFFSET -0.000000 0.000000 3.705043
                    }
                }
            }
        }
    }
    JOINT RightUpLeg
    {
        OFFSET -9.262609 0.000000 0.000000
        CHANNELS 3 Zrotation Xrotation Yrotation
        JOINT RightLeg
        {
            OFFSET -0.000000 -35.489674 0.000000
            CHANNELS 3 Zrotation Xrotation Yrotation
            JOINT RightFoot
            {
                OFFSET -0.000000 -38.202274 0.000000
                CHANNELS 3 Zrotation Xrotation Yrotation
                JOINT RightToeBase
                {
                    OFFSET -0.000000 -6.020695 13.893912
                    CHANNELS 3 Zrotation Xrotation Yrotation
                    End Site
                    {
                        OFFSET -0.000000 0.000000 3.705043
                    }
                }
            }
        }
    }
}
MOTION
Frames:    8
Frame Time:    0.004000
-10.143518    118.541611    -67.537270    2.230039    -0.223425    -8.815947    -2.480148    4.303239    -1.549082    0.708006    0.401195    -1.644681    -5.978172    28.206758    -5.747254    -1.441860    11.223599    -6.748955    -15.017245    13.244846    9.015867    -32.197662    56.132252    -21.041159    12.108392    -19.407722    -26.014511    -9.137497    -16.083000    -8.539412    4.030724    30.723446    24.390808    35.420181    22.858692    14.145364    -8.000698    -9.728750    25.196468    0.404255    -7.942610    4.824412    -3.922051    3.141356    2.091520    -6.103011    5.648630    1.956277    6.753505    -9.994078    15.798052    0.000000    0.000000    0.000000    0.535887    -24.915428    -3.347817    -1.754200    33.209541    0.307089    -3.638104    -1.764798    7.578425    0.000000    0.000000    0.000000    
-10.215121    118.544365    -67.357170    2.231562    -0.223293    -8.828948    -2.486477    4.239158    -1.506377    0.748357    0.335828    -1.600504    -6.074706    28.250273    -5.747502    -1.353270    11.236573    -6.759166    -15.053825    13.259323    9.080128    -32.176876    56.093830    -21.073523    12.234327    -19.523069    -26.221230    -9.326379    -16.158123    -8.260934    4.016492    30.774271    24.336205    35.471951    22.795542    14.120773    -7.996200    -9.663645    25.094574    0.750790    -7.869927    5.011000    -3.842534    3.099731    2.193450    -6.185625    5.994494    1.793171    6.765868    -10.122937    15.905938    0.000000    0.000000    0.000000    0.737377    -24.576309    -2.968219    -1.821708    32.830864    0.277672    -3.686993    -2.018972    7.352937    0.000000    0.000000    0.000000    
-10.283682    118.549011    -67.183495    2.217351    -0.239452    -8.822783    -2.484702    4.188083    -1.477287    0.811236    0.301909    -1.570199    -6.149696    28.199356    -5.720632    -1.345944    11.362703    -6.735060    -15.109184    13.261968    9.141288    -32.184483    55.980648    -21.080978    12.278314    -19.516441    -26.355747    -9.367324    -16.117195    -8.345606    3.974195    30.810333    24.308498    35.519882    22.705996    14.090363    -7.897455    -9.620214    25.063087    0.722099    -7.852129    4.937668    -3.761491    3.036641    2.215831    -6.249330    6.401412    1.708875    6.754450    -10.281382    15.988359    0.000000    0.000000    0.000000    0.942485    -24.246386    -2.619918    -1.901005    32.503834    0.131282    -3.722305    -2.225818    7.259658    0.000000    0.000000    0.000000    
-10.357737    118.551590    -67.007957    2.179152    -0.294805    -8.850040    -2.451435    4.183476    -1.434601    0.834995    0.285890    -1.526155    -6.210807    28.239754    -5.751874    -1.306170    11.265409    -6.776676    -15.139904    13.191344    9.227696    -32.188046    55.971237    -21.070871    12.322699    -19.578230    -26.527458    -9.301741    -16.157516    -8.325171    3.952940    30.819527    24.283508    35.570293    22.663450    14.071827    -7.826204    -9.595975    24.996284    0.649015    -7.851637    4.895255    -3.653985    3.024982    2.267444    -6.333924    6.782042    1.733048    6.805896    -10.419272    16.000347    0.000000    0.000000    0.000000    1.179392    -23.895388    -2.210011    -1.954668    32.234100    -0.044525    -3.740938    -2.416888    7.141006    0.000000    0.000000    0.000000    
-10.417013    118.561638    -66.852699    2.168218    -0.291881    -8.883166    -2.418066    4.140259    -1.402797    0.837705    0.249923    -1.491936    -6.230403    28.194277    -5.739388    -1.342705    11.303406    -6.764264    -15.169616    13.025517    9.312690    -32.308781    55.993275    -20.914949    12.501944    -19.550703    -26.600634    -9.649047    -16.041843    -8.495852    3.921640    30.818438    24.309841    35.623188    22.574381    14.023434    -7.747779    -9.530533    24.942856    0.729407    -7.803583    4.894402    -3.571248    2.927169    2.220383    -6.432136    7.176211    1.835850    6.827417    -10.539793    16.014839    0.000000    0.000000    0.000000    1.376421    -23.668890    -1.794155    -1.988092    32.055550    0.004314    -3.883240    -2.593744    6.777002    0.000000    0.000000    0.000000    
-10.494569    118.568054    -66.676834    2.130776    -0.327889    -8.924524    -2.399468    4.113559    -1.353311    0.880365    0.232788    -1.441231    -6.283146    28.112270    -5.708972    -1.324063    11.432233    -6.731290    -15.197680    12.981642    9.374626    -32.390976    55.928730    -20.845602    12.568436    -19.627375    -26.761518    -9.598125    -16.091860    -8.478041    3.895876    30.812431    24.316231    35.677650    22.641996    13.962071    -7.732918    -9.561992    24.884092    0.682382    -7.844723    4.866648    -3.430529    2.878243    2.256634    -6.577225    7.609647    1.838082    6.890018    -10.691339    16.076479    0.000000    0.000000    0.000000    1.608300    -23.410471    -1.363898    -2.022568    31.949253    0.055738    -4.135505    -2.762295    6.447593    0.000000    0.000000    0.000000    
-10.549571    118.571243    -66.526855    2.101927    -0.381005    -8.954992    -2.349325    4.137253    -1.313092    0.886601    0.215901    -1.399528    -6.352224    28.072632    -5.712572    -1.274984    11.441217    -6.738325    -15.225934    12.955407    9.429774    -32.445423    55.844749    -20.813719    12.669053    -19.690941    -26.884369    -9.649220    -16.108168    -8.572883    3.846680    30.815821    24.351204    35.712177    22.596624    13.934265    -7.706018    -9.518330    24.798479    0.782360    -7.808105    4.934548    -3.326872    2.770825    2.208764    -6.715556    8.126390    1.864717    6.946005    -10.865952    16.222979    0.000000    0.000000    0.000000    1.768996    -23.215656    -1.045737    -2.021472    31.940199    0.219399    -4.236070    -2.876974    5.959134    0.000000    0.000000    0.000000    
-10.620135    118.580963    -66.359314    2.053655    -0.439087    -9.019865    -2.299608    4.141220    -1.275358    0.899508    0.209448    -1.360123    -6.403405    28.145031    -5.729116    -1.281755    11.286938    -6.768176    -15.267795    12.910635    9.525692    -32.504772    55.780205    -20.748161    12.757576    -19.737970    -27.010550    -9.655620    -16.118513    -8.600470    3.794925    30.827578    24.428154    35.741562    22.554659    13.905575    -7.608460    -9.502437    24.741154    0.551566    -7.827919    4.805102    -3.195912    2.715980    2.235709    -6.823797    8.511200    1.980118    6.864855    -10.946799    16.168856    0.000000    0.000000    0.000000    1.953780    -23.010481    -0.663965    -1.995463    31.982798    0.774790    -4.336431    -3.008105    5.111257    0.000000    0.000000    0.000000    
